<svg xmlns="http://www.w3.org/2000/svg" viewBox="0 0 527.74 155.04"><defs><style>.cls-1{fill:#6f5ccd;}</style></defs><g id="图层_2" data-name="图层 2"><g id="图层_1-2" data-name="图层 1"><path class="cls-1" d="M101.33,2.58c-1.18,0-2.35,0-3.51.12A77.54,77.54,0,0,0,0,77.52v23.06a53.65,53.65,0,0,0,62.47,53,77.54,77.54,0,0,0,92.57-76V56.29A53.77,53.77,0,0,0,101.33,2.58ZM87.85,142a53.62,53.62,0,0,0,19.58-41.44V41.89H95.23v58.69a41.58,41.58,0,0,1-32.57,40.54A65.31,65.31,0,0,1,70.1,12.63,53.65,53.65,0,0,0,47.62,56.29V115H59.81V56.29a41.57,41.57,0,0,1,36.8-41.24,65.32,65.32,0,0,1-8.76,127Z"/><path d="M219.41,39.18v65.5c0,3.62.6,6,1.82,7.14a6.43,6.43,0,0,0,4.57,1.71h33.75q7.65,0,7.66-8V39.18l14.16-.06v65.79q0,10.62-5.77,16a20.25,20.25,0,0,1-14.33,5.26h-36q-9.48,0-14.62-5A17.49,17.49,0,0,1,205.24,108V39.18Z"/><path d="M298.55,125.93V83q0-6.74,4.11-10.74a13.84,13.84,0,0,1,9.88-4.11h24q7.49,0,11.83,4.11a13.6,13.6,0,0,1,4.22,10.22v43.41H340.41V84.75c0-2.13-.38-3.6-1.14-4.4S336.87,79,334.7,79H318c-3.19,0-5.25.54-6.16,1.6a6.34,6.34,0,0,0-1.09,4.17v41.18Z"/><path d="M371.69,38.89h12.17V54H371.69Zm0,28.84h12.17V126H371.69Z"/><path d="M416.57,52.94h12.16V69.45h20.39V80.24H428.73v29.3q0,3.54,1.77,4.74,1.54,1.14,6.85,1.14h11.2v10.79H434.16q-7.32,0-10.45-1.71-7.14-4-7.14-14V80.24H403.2V69.45h13.37Z"/><path d="M498.11,121.47h-3.6a16.79,16.79,0,0,1-8-1.77,12.58,12.58,0,0,1-6.34-7.76L466.52,67.39h12.05l11.26,36.89q1.76,5.77,7.25,5.77t7.25-5.77l11.42-36.89h12L508,129.58q-2.75,8.63-6.4,11.88-4.51,4-12.45,4H478.29v-10.8h7.31q4.33,0,6.62-1.54c1.64-1.1,3-3.2,4.06-6.28Z"/></g></g></svg>